<mxfile host="app.diagrams.net" agent="Mozilla/5.0 (Windows NT 10.0; Win64; x64) AppleWebKit/537.36 (KHTML, like Gecko) Chrome/128.0.0.0 Safari/537.36 OPR/114.0.0.0" version="25.0.1">
  <diagram name="Pagina-1" id="PTWMIlFcWEW1Bm_SqzjM">
    <mxGraphModel dx="1009" dy="539" grid="1" gridSize="10" guides="1" tooltips="1" connect="1" arrows="1" fold="1" page="1" pageScale="1" pageWidth="827" pageHeight="1169" math="0" shadow="0">
      <root>
        <mxCell id="0" />
        <mxCell id="1" parent="0" />
        <mxCell id="Hz0j49JLsUxRW7hpQC5l-4" value="Header" style="rounded=0;whiteSpace=wrap;html=1;" vertex="1" parent="1">
          <mxGeometry x="360" y="80" width="140" height="30" as="geometry" />
        </mxCell>
        <mxCell id="Hz0j49JLsUxRW7hpQC5l-7" value="+ opcode: unit8&lt;br&gt;&lt;div style=&quot;text-align: justify; line-height: 190%;&quot;&gt;+ timestamp: int32&lt;br&gt;&lt;span style=&quot;background-color: initial; text-align: left;&quot;&gt;+ payloadSize: unit32&lt;/span&gt;&lt;/div&gt;" style="rounded=0;whiteSpace=wrap;html=1;align=left;" vertex="1" parent="1">
          <mxGeometry x="360" y="110" width="140" height="70" as="geometry" />
        </mxCell>
        <mxCell id="Hz0j49JLsUxRW7hpQC5l-9" value="Payload" style="rounded=0;whiteSpace=wrap;html=1;" vertex="1" parent="1">
          <mxGeometry x="354" y="250" width="146" height="30" as="geometry" />
        </mxCell>
        <mxCell id="Hz0j49JLsUxRW7hpQC5l-10" value="+body: unit8[]&lt;br&gt;&lt;div style=&quot;line-height: 220%;&quot;&gt;+ MD5Checksum: int32&lt;/div&gt;" style="rounded=0;whiteSpace=wrap;html=1;align=left;" vertex="1" parent="1">
          <mxGeometry x="354" y="280" width="146" height="50" as="geometry" />
        </mxCell>
        <mxCell id="Hz0j49JLsUxRW7hpQC5l-11" value="" style="endArrow=classic;html=1;rounded=0;exitX=0.548;exitY=0;exitDx=0;exitDy=0;exitPerimeter=0;" edge="1" parent="1" source="Hz0j49JLsUxRW7hpQC5l-9" target="Hz0j49JLsUxRW7hpQC5l-7">
          <mxGeometry width="50" height="50" relative="1" as="geometry">
            <mxPoint x="390" y="230" as="sourcePoint" />
            <mxPoint x="440" y="180" as="targetPoint" />
          </mxGeometry>
        </mxCell>
      </root>
    </mxGraphModel>
  </diagram>
</mxfile>
